0
SECTION
2
HEADER
9
$INSUNITS
70
4
0
ENDSEC
0
SECTION
2
ENTITIES
0
LINE
8
p_line
10
5
20
30
11
15
21
30
0
ARC
8
p_arc
10
25
20
15
40
5
50
270
51
0
0
CIRCLE
8
p_circle
10
15
20
31
40
3.5
0
LWPOLYLINE
8
p_ellipse
90
65
70
1
10
24.8446
20
26.263
10
24.7727
20
26.079
10
24.6549
20
25.9087
10
24.4923
20
25.7537
10
24.2864
20
25.6156
10
24.0393
20
25.4956
10
23.7532
20
25.3949
10
23.431
20
25.3144
10
23.0757
20
25.255
10
22.6909
20
25.2173
10
22.2801
20
25.2015
10
21.8473
20
25.2079
10
21.3968
20
25.2363
10
20.9328
20
25.2865
10
20.4598
20
25.3581
10
19.9824
20
25.4503
10
19.5052
20
25.5622
10
19.0327
20
25.6928
10
18.5696
20
25.8407
10
18.1202
20
26.0047
10
17.6889
20
26.1831
10
17.2799
20
26.3741
10
16.8971
20
26.576
10
16.5442
20
26.7868
10
16.2245
20
27.0045
10
15.9412
20
27.2269
10
15.697
20
27.4519
10
15.4942
20
27.6775
10
15.3349
20
27.9013
10
15.2204
20
28.1212
10
15.152
20
28.3352
10
15.1303
20
28.5411
10
15.1554
20
28.737
10
15.2273
20
28.921
10
15.3451
20
29.0913
10
15.5077
20
29.2463
10
15.7136
20
29.3844
10
15.9607
20
29.5044
10
16.2468
20
29.6051
10
16.569
20
29.6856
10
16.9243
20
29.745
10
17.3091
20
29.7827
10
17.7199
20
29.7985
10
18.1527
20
29.7921
10
18.6032
20
29.7637
10
19.0672
20
29.7135
10
19.5402
20
29.6419
10
20.0176
20
29.5497
10
20.4948
20
29.4378
10
20.9673
20
29.3072
10
21.4304
20
29.1593
10
21.8798
20
28.9953
10
22.3111
20
28.8169
10
22.7201
20
28.6259
10
23.1029
20
28.424
10
23.4558
20
28.2132
10
23.7755
20
27.9955
10
24.0588
20
27.7731
10
24.303
20
27.5481
10
24.5058
20
27.3225
10
24.6651
20
27.0987
10
24.7796
20
26.8788
10
24.848
20
26.6648
10
24.8697
20
26.4589
10
24.8446
20
26.263
0
ENDSEC
0
EOF
